<?xml version="1.0" encoding="utf-8"?>
<!-- Generator: Adobe Illustrator 23.0.0, SVG Export Plug-In . SVG Version: 6.00 Build 0)  -->
<svg version="1.1" id="레이어_1" xmlns="http://www.w3.org/2000/svg" xmlns:xlink="http://www.w3.org/1999/xlink" x="0px"
	 y="0px" viewBox="0 0 24 24" style="enable-background:new 0 0 24 24;" xml:space="preserve" fill="none">
<style type="text/css">
	.st0{fill-rule:evenodd;clip-rule:evenodd;}
</style>
<path class="st0" d="M10,1.1c0.6-0.6,1.5-0.9,2.3-0.9c0.9,0,1.7,0.3,2.3,0.9c0,0,0,0,0,0l7.6,7.2c0.5,0.5,1,1.1,1.3,1.8
	c0.3,0.7,0.4,1.4,0.4,2.2c0,0,0,0,0,0v8.1c0,0.9-0.4,1.8-1,2.4c-0.6,0.6-1.5,1-2.4,1H4.1c-0.9,0-1.8-0.4-2.4-1c-0.6-0.6-1-1.5-1-2.4
	v-8.1c0,0,0,0,0,0c0-0.7,0.2-1.5,0.4-2.2c0.3-0.7,0.7-1.3,1.3-1.8 M2.4,8.3L10,1.1c0,0,0,0,0,0 M12.3,2.8c-0.2,0-0.4,0.1-0.5,0.2
	l-7.6,7.2c-0.3,0.3-0.5,0.6-0.7,0.9c-0.2,0.4-0.2,0.7-0.2,1.1v8.1c0,0.2,0.1,0.4,0.2,0.5c0.1,0.1,0.3,0.2,0.5,0.2h16.6
	c0.2,0,0.4-0.1,0.5-0.2c0.1-0.1,0.2-0.3,0.2-0.5v-8.1c0-0.4-0.1-0.8-0.2-1.1c-0.2-0.4-0.4-0.7-0.7-0.9L12.9,3
	C12.7,2.9,12.5,2.8,12.3,2.8z"/>
</svg>
