<svg width="27" height="24" viewBox="0 0 27 24" fill="none" xmlns="http://www.w3.org/2000/svg">
<path d="M10.125 10.125C11.4677 10.125 12.7553 9.59163 13.7047 8.64223C14.6541 7.69283 15.1875 6.40516 15.1875 5.0625C15.1875 3.71984 14.6541 2.43217 13.7047 1.48277C12.7553 0.533369 11.4677 0 10.125 0C8.78234 0 7.49468 0.533369 6.54527 1.48277C5.59587 2.43217 5.0625 3.71984 5.0625 5.0625C5.0625 6.40516 5.59587 7.69283 6.54527 8.64223C7.49468 9.59163 8.78234 10.125 10.125 10.125ZM10.125 13.5C12.8103 13.5 15.3856 14.5667 17.2845 16.4655C19.1833 18.3643 20.25 20.9397 20.25 23.625H0C0 20.9397 1.06674 18.3643 2.96554 16.4655C4.86435 14.5667 7.43968 13.5 10.125 13.5ZM23.1307 5.55676C23.4472 5.87323 23.625 6.30245 23.625 6.75V8.4375H25.3125C25.7601 8.4375 26.1893 8.61529 26.5057 8.93176C26.8222 9.24823 27 9.67745 27 10.125C27 10.5726 26.8222 11.0018 26.5057 11.3182C26.1893 11.6347 25.7601 11.8125 25.3125 11.8125H23.625V13.5C23.625 13.9476 23.4472 14.3768 23.1307 14.6932C22.8143 15.0097 22.3851 15.1875 21.9375 15.1875C21.4899 15.1875 21.0607 15.0097 20.7443 14.6932C20.4278 14.3768 20.25 13.9476 20.25 13.5V11.8125H18.5625C18.1149 11.8125 17.6857 11.6347 17.3693 11.3182C17.0528 11.0018 16.875 10.5726 16.875 10.125C16.875 9.67745 17.0528 9.24823 17.3693 8.93176C17.6857 8.61529 18.1149 8.4375 18.5625 8.4375H20.25V6.75C20.25 6.30245 20.4278 5.87323 20.7443 5.55676C21.0607 5.24029 21.4899 5.0625 21.9375 5.0625C22.3851 5.0625 22.8143 5.24029 23.1307 5.55676Z"/>
</svg>
