<svg id="레이어_1" data-name="레이어 1" xmlns="http://www.w3.org/2000/svg" viewBox="0 0 566.93 566.93" fill="none"><title>대지 1new</title><path d="M31.5,237.58c0-107.1,82.05-197.46,188.63-207.71C330.58,19.24,431.57,98.44,446.69,208c6.84,49.57-2.91,96-29.2,138.68-3.05,5-3,7.73,1.32,12C455.7,394.85,492.32,431.38,529,467.82c16,15.9,16.09,28.45.3,44.25-5.25,5.25-10.46,10.54-15.77,15.75-13.81,13.55-27.18,13.64-40.86,0q-55.79-55.62-111.33-111.49c-4.05-4.08-6.77-4.76-11.95-1.57C247.26,477.65,115.21,442.63,57,337.4A207.78,207.78,0,0,1,31.5,237.58ZM239.79,110.67c-69.88.57-126.88,57.71-126.63,126.93.25,69.79,58.19,127.28,127.67,126.68C310.47,363.68,367.59,306,366.94,237,366.28,167.1,308.88,110.09,239.79,110.67Z"/></svg>