<?xml version="1.0" encoding="utf-8"?>
<!-- Generator: Adobe Illustrator 23.0.0, SVG Export Plug-In . SVG Version: 6.00 Build 0)  -->
<svg version="1.1" id="레이어_1" xmlns="http://www.w3.org/2000/svg" xmlns:xlink="http://www.w3.org/1999/xlink" x="0px"
	 y="0px" viewBox="0 0 25 25" style="enable-background:new 0 0 25 25;" xml:space="preserve" fill="none">
<style type="text/css">
	.st0{fill-rule:evenodd;clip-rule:evenodd;}
</style>
<path class="st0" d="M7.6,0.9C9,0.3,10.6,0,12.2,0c3.2,0,6.3,1.3,8.6,3.6c2.3,2.3,3.6,5.4,3.6,8.6c0,3.2-1.3,6.3-3.6,8.6
	c-2.3,2.3-5.4,3.6-8.6,3.6h-11c-0.2,0-0.5-0.1-0.7-0.2c-0.2-0.1-0.4-0.3-0.5-0.5C0,23.5,0,23.2,0,23c0-0.2,0.2-0.5,0.3-0.6l2.4-2.4
	C1,17.7,0,15,0,12.2C0,9,1.3,5.9,3.6,3.6C4.7,2.4,6.1,1.5,7.6,0.9z M4.2,22h8c2.3,0,4.4-0.8,6.2-2.2c1.7-1.4,2.9-3.4,3.4-5.6
	c0.4-2.2,0.1-4.5-1-6.5c-1.1-2-2.8-3.5-4.9-4.4c-2.1-0.9-4.4-1-6.6-0.3c-2.2,0.7-4,2-5.3,3.9c-1.3,1.9-1.8,4.1-1.6,6.4
	c0.2,2.2,1.2,4.3,2.8,5.9c0.2,0.2,0.4,0.5,0.4,0.9c0,0.2,0,0.3-0.1,0.5c-0.1,0.1-0.2,0.3-0.3,0.4L4.2,22z M13.4,9.5
	c0,0.8-0.7,1.5-1.5,1.5s-1.5-0.7-1.5-1.5c0-0.8,0.7-1.5,1.5-1.5S13.4,8.7,13.4,9.5z M13.4,14.5c0,0.8-0.7,1.5-1.5,1.5
	s-1.5-0.7-1.5-1.5s0.7-1.5,1.5-1.5S13.4,13.7,13.4,14.5z"/>
</svg>
