<?xml version="1.0" encoding="utf-8"?>
<!-- Generator: Adobe Illustrator 23.0.0, SVG Export Plug-In . SVG Version: 6.00 Build 0)  -->
<svg version="1.1" id="레이어_1" xmlns="http://www.w3.org/2000/svg" xmlns:xlink="http://www.w3.org/1999/xlink" x="0px"
	 y="0px" viewBox="0 0 20 19" style="enable-background:new 0 0 20 19;" xml:space="preserve" fill="none">
<style type="text/css">
	.st0{fill-rule:evenodd;clip-rule:evenodd;}
</style>
<path class="st0" d="M0,3c0-1.7,1.3-3,3-3h14c1.7,0,3,1.3,3,3v10c0,1.7-1.3,3-3,3H3.9L0,19v-6v-1V3z M5,5c0-0.6,0.4-1,1-1h8
	c0.6,0,1,0.4,1,1s-0.4,1-1,1H6C5.4,6,5,5.6,5,5z M5,9c0-0.6,0.4-1,1-1h5c0.6,0,1,0.4,1,1s-0.4,1-1,1H6C5.4,10,5,9.6,5,9z"/>
</svg>
