<svg width="55" height="55" viewBox="0 0 55 55" fill="none" xmlns="http://www.w3.org/2000/svg">
<path fill-rule="evenodd" clip-rule="evenodd" d="M27.5 0C12.3173 0 0 12.3173 0 27.5C0 42.6827 12.3173 55 27.5 55C42.6827 55 55 42.6827 55 27.5C55 12.3173 42.6827 0 27.5 0ZM4.23077 27.5C4.23077 14.6539 14.6539 4.23077 27.5 4.23077C40.3461 4.23077 50.7692 14.6539 50.7692 27.5C50.7692 40.3461 40.3461 50.7692 27.5 50.7692C14.6539 50.7692 4.23077 40.3461 4.23077 27.5ZM34.2842 16.3035C35.1103 15.4774 35.1103 14.138 34.2842 13.3119C33.4581 12.4858 32.1187 12.4858 31.2926 13.3119L18.6003 26.0042C17.7742 26.8303 17.7742 28.1697 18.6003 28.9958L31.2926 41.6881C32.1187 42.5142 33.4581 42.5142 34.2842 41.6881C35.1103 40.862 35.1103 39.5226 34.2842 38.6965L23.0877 27.5L34.2842 16.3035Z"/>
</svg>
