<svg width="26" height="26" viewBox="0 0 26 26" fill="none" xmlns="http://www.w3.org/2000/svg">
<path d="M2.88889 26H23.1111C23.8773 26 24.6121 25.6956 25.1539 25.1539C25.6956 24.6121 26 23.8773 26 23.1111V2.88889C26 2.12271 25.6956 1.38791 25.1539 0.846136C24.6121 0.304364 23.8773 0 23.1111 0H2.88889C2.12271 0 1.38791 0.304364 0.846136 0.846136C0.304364 1.38791 0 2.12271 0 2.88889V23.1111C0 23.8773 0.304364 24.6121 0.846136 25.1539C1.38791 25.6956 2.12271 26 2.88889 26ZM7.22222 15.8889L10.6354 19.3021L15.8889 11.5556L23.1111 21.6667H2.88889L7.22222 15.8889Z"/>
</svg>
