<svg width="24" height="20" viewBox="0 0 24 20" fill="none" xmlns="http://www.w3.org/2000/svg">
<path d="M20.6061 0.0741466C20.9306 -0.0125095 21.2706 -0.0233681 21.6 0.0424105C21.9294 0.108189 22.2392 0.248842 22.5056 0.453493C22.7719 0.658144 22.9876 0.921309 23.1359 1.22264C23.2843 1.52396 23.3614 1.85538 23.3612 2.19126V17.2446C23.3614 17.5917 23.2791 17.9339 23.1211 18.2429C22.9631 18.552 22.7339 18.819 22.4524 19.0221C22.1709 19.2252 21.8452 19.3584 21.5021 19.4109C21.159 19.4633 20.8083 19.4335 20.479 19.3238L13.5349 17.0081C13.1272 18.0335 12.3748 18.8848 11.4072 19.4154C10.4396 19.946 9.31734 20.1228 8.23349 19.9154C7.14963 19.708 6.17196 19.1293 5.46869 18.2789C4.76542 17.4285 4.38053 16.3595 4.38023 15.256V13.9566L1.49804 12.9958C1.06211 12.8506 0.682886 12.572 0.414041 12.1994C0.145196 11.8268 0.000349001 11.3791 1.29641e-07 10.9196V7.2548C-0.00016594 6.77198 0.159222 6.30263 0.453376 5.91975C0.74753 5.53688 1.15996 5.26194 1.62653 5.13769L20.6075 0.0756066L20.6061 0.0741466ZM5.84031 14.4442V15.256C5.83957 16.0135 6.10063 16.748 6.57928 17.3351C7.05793 17.9222 7.72477 18.3258 8.46688 18.4777C9.20899 18.6296 9.98078 18.5203 10.6516 18.1684C11.3224 17.8165 11.851 17.2436 12.1478 16.5467L5.84031 14.4442Z" />
</svg>
