<svg width="23" height="23" viewBox="0 0 23 23" fill="none" xmlns="http://www.w3.org/2000/svg">
<path  d="M5.19239 17.9204C1.67767 14.4056 1.67767 8.70715 5.19239 5.19244C8.70711 1.67772 14.4056 1.67772 17.9203 5.19244C21.435 8.70715 21.435 14.4056 17.9203 17.9204C14.4056 21.4351 8.70711 21.4351 5.19239 17.9204ZM3.77817 3.77822C-0.517593 8.07399 -0.517593 15.0388 3.77817 19.3346C8.07394 23.6303 15.0388 23.6303 19.3345 19.3346C23.6303 15.0388 23.6303 8.07399 19.3345 3.77822C15.0388 -0.517545 8.07394 -0.517545 3.77817 3.77822ZM7.31372 10.5564C6.76143 10.5564 6.31372 11.0041 6.31372 11.5564C6.31372 12.1087 6.76143 12.5564 7.31372 12.5564H10.5564V15.799C10.5564 16.3513 11.0041 16.799 11.5564 16.799C12.1086 16.799 12.5564 16.3513 12.5564 15.799V12.5564H15.799C16.3513 12.5564 16.799 12.1087 16.799 11.5564C16.799 11.0041 16.3513 10.5564 15.799 10.5564H12.5564V7.31376C12.5564 6.76147 12.1086 6.31376 11.5564 6.31376C11.0041 6.31376 10.5564 6.76147 10.5564 7.31376V10.5564H7.31372Z" />
</svg>
