<?xml version="1.0" encoding="utf-8"?>
<!-- Generator: Adobe Illustrator 23.0.0, SVG Export Plug-In . SVG Version: 6.00 Build 0)  -->
<svg version="1.1" id="레이어_1" xmlns="http://www.w3.org/2000/svg" xmlns:xlink="http://www.w3.org/1999/xlink" x="0px"
	 y="0px" viewBox="0 0 30 29" style="enable-background:new 0 0 30 29;" xml:space="preserve" fill="none">
<style type="text/css">
	.st0{fill-rule:evenodd;clip-rule:evenodd;}
</style>
<path class="st0" d="M27,6.7c0.8,0,1.6,0.3,2.1,0.9C29.7,8.2,30,8.9,30,9.7V26c0,0.8-0.3,1.5-0.9,2.1C28.5,28.7,27.8,29,27,29H3
	c-0.8,0-1.6-0.3-2.1-0.9C0.3,27.6,0,26.8,0,26V9.7c0-0.8,0.3-1.5,0.9-2.1C1.5,7,2.2,6.7,3,6.7h6c0,0-0.4-1.9,0-3
	c0.5-1.6,1.5-2.3,3-3c2.1-1,3.9-1,6,0c1.5,0.7,2.5,1.4,3,3c0.4,1.1,0,3,0,3H27z M12,6.7c0,0-0.5-1.9,0-3c1.1-2.1,4.9-2.1,6,0
	c0.5,1,0,3,0,3H12z M22.6,14l-9.9,9.8l-5.2-5.2l2.1-2.1l3.1,3.1l7.8-7.7L22.6,14z"/>
</svg>
