<svg width="27" height="27" viewBox="0 0 27 27" fill="none" xmlns="http://www.w3.org/2000/svg">
<path  d="M-5.90104e-07 13.5C-2.64308e-07 20.9533 6.04667 27 13.5 27C20.9533 27 27 20.9533 27 13.5C27 6.04667 20.9533 9.91449e-07 13.5 1.31724e-06C6.04666 1.64304e-06 -9.15899e-07 6.04667 -5.90104e-07 13.5ZM13.5 24.9231C7.19372 24.9231 2.07692 19.8063 2.07692 13.5C2.07692 7.19372 7.19372 2.07692 13.5 2.07692C19.8063 2.07692 24.9231 7.19372 24.9231 13.5C24.9231 19.8063 19.8063 24.9231 13.5 24.9231ZM8.00354 10.1696C7.598 9.76403 6.94048 9.76403 6.53493 10.1696C6.12939 10.5751 6.12939 11.2326 6.53493 11.6382L12.7657 17.8689C13.1712 18.2745 13.8288 18.2745 14.2343 17.8689L20.4651 11.6382C20.8706 11.2326 20.8706 10.5751 20.4651 10.1696C20.0595 9.76403 19.402 9.76403 18.9965 10.1696L13.5 15.666L8.00354 10.1696Z"/>
</svg>
