<?xml version="1.0" encoding="utf-8"?>
<!-- Generator: Adobe Illustrator 23.0.0, SVG Export Plug-In . SVG Version: 6.00 Build 0)  -->
<svg version="1.1" id="레이어_1" xmlns="http://www.w3.org/2000/svg" xmlns:xlink="http://www.w3.org/1999/xlink" x="0px"
	 y="0px" viewBox="0 0 24 26" style="enable-background:new 0 0 24 26;" xml:space="preserve" fill="none">
<style type="text/css">
	.st0{fill-rule:evenodd;clip-rule:evenodd;}
</style>
<path class="st0" d="M12.4,0.3C10.7,0.3,9,1,7.8,2.2S5.9,5.1,5.9,6.8s0.7,3.4,1.9,4.6s2.9,1.9,4.6,1.9c0.9,0,1.7-0.2,2.5-0.5
	s1.5-0.8,2.1-1.4c0.6-0.6,1.1-1.3,1.4-2.1C18.8,8.5,19,7.7,19,6.8s-0.2-1.7-0.5-2.5s-0.8-1.5-1.4-2.1S15.8,1.1,15,0.8
	C14.1,0.4,13.3,0.3,12.4,0.3z M9.5,3.9c0.8-0.8,1.8-1.2,2.9-1.2C13,2.7,13.5,2.8,14,3s1,0.5,1.3,0.9c0.4,0.4,0.7,0.8,0.9,1.3
	s0.3,1,0.3,1.6s-0.1,1.1-0.3,1.6c-0.2,0.5-0.5,1-0.9,1.3c-0.4,0.4-0.8,0.7-1.3,0.9s-1,0.3-1.6,0.3c-1.1,0-2.1-0.4-2.9-1.2
	C8.7,9,8.3,7.9,8.3,6.8S8.7,4.7,9.5,3.9z M15.3,14.8h-6l0,0c-1.2,0-2.2,0-3,0.1C5.4,15,4.7,15.1,4,15.4C2.9,16,2,16.9,1.5,18
	c-0.3,0.7-0.5,1.4-0.6,2.3c-0.1,0.8-0.1,1.8-0.1,3.1V24c0,0.7,0.5,1.2,1.2,1.2h20.4c0.7,0,1.2-0.5,1.2-1.2v-0.7l0,0
	c0-1.2,0-2.2-0.1-3.1c-0.1-0.8-0.2-1.6-0.6-2.3c-0.5-1.1-1.4-2-2.5-2.5c-0.7-0.4-1.4-0.5-2.2-0.6C17.5,14.8,16.5,14.8,15.3,14.8
	L15.3,14.8z M4.3,18.2c-0.3,0.3-0.5,0.6-0.7,0.9c-0.1,0.3-0.3,0.7-0.3,1.4c0,0.6-0.1,1.4-0.1,2.4h18c0-1,0-1.8-0.1-2.4
	c-0.1-0.7-0.2-1.1-0.3-1.4c-0.2-0.3-0.4-0.6-0.7-0.9c-0.2-0.2-0.5-0.4-0.8-0.6c-0.3-0.1-0.7-0.3-1.3-0.3c-0.7-0.1-1.6-0.1-2.9-0.1
	H9.3c-1.3,0-2.2,0-2.9,0.1s-1.1,0.2-1.3,0.3C4.8,17.7,4.5,17.9,4.3,18.2z"/>
</svg>
